<mxfile host="Electron" agent="Mozilla/5.0 (Windows NT 10.0; Win64; x64) AppleWebKit/537.36 (KHTML, like Gecko) draw.io/26.2.2 Chrome/134.0.6998.178 Electron/35.1.2 Safari/537.36" version="26.2.2">
  <diagram id="gzj5Pa7dnKzxIuWKrhzg" name="Page-1">
    <mxGraphModel dx="3350" dy="2200" grid="1" gridSize="10" guides="1" tooltips="1" connect="1" arrows="1" fold="1" page="1" pageScale="1" pageWidth="850" pageHeight="1100" math="0" shadow="0">
      <root>
        <mxCell id="0" />
        <mxCell id="1" parent="0" />
        <mxCell id="AXch3FCouiSQZAluR5rx-9" style="edgeStyle=orthogonalEdgeStyle;rounded=0;orthogonalLoop=1;jettySize=auto;html=1;exitX=0.5;exitY=1;exitDx=0;exitDy=0;entryX=0.5;entryY=0;entryDx=0;entryDy=0;" parent="1" source="AXch3FCouiSQZAluR5rx-3" target="AXch3FCouiSQZAluR5rx-8" edge="1">
          <mxGeometry relative="1" as="geometry" />
        </mxCell>
        <mxCell id="AXch3FCouiSQZAluR5rx-3" value="iPVersionNumber&amp;nbsp;" style="shape=parallelogram;perimeter=parallelogramPerimeter;whiteSpace=wrap;html=1;fixedSize=1;" parent="1" vertex="1">
          <mxGeometry x="348" y="140" width="155" height="60" as="geometry" />
        </mxCell>
        <mxCell id="AXch3FCouiSQZAluR5rx-7" style="edgeStyle=orthogonalEdgeStyle;rounded=0;orthogonalLoop=1;jettySize=auto;html=1;entryX=0.5;entryY=0;entryDx=0;entryDy=0;" parent="1" source="AXch3FCouiSQZAluR5rx-5" target="AXch3FCouiSQZAluR5rx-3" edge="1">
          <mxGeometry relative="1" as="geometry" />
        </mxCell>
        <mxCell id="AXch3FCouiSQZAluR5rx-5" value="Start" style="ellipse;whiteSpace=wrap;html=1;" parent="1" vertex="1">
          <mxGeometry x="365" y="-20" width="120" height="80" as="geometry" />
        </mxCell>
        <mxCell id="AXch3FCouiSQZAluR5rx-22" value="" style="edgeStyle=orthogonalEdgeStyle;rounded=0;orthogonalLoop=1;jettySize=auto;html=1;" parent="1" source="AXch3FCouiSQZAluR5rx-8" target="AXch3FCouiSQZAluR5rx-21" edge="1">
          <mxGeometry relative="1" as="geometry" />
        </mxCell>
        <mxCell id="AXch3FCouiSQZAluR5rx-8" value="Split the &lt;code data-end=&quot;173&quot; data-start=&quot;156&quot;&gt;iPVersionNumber&lt;/code&gt; string using &lt;font face=&quot;monospace&quot;&gt;&#39;.&#39;&lt;/font&gt;" style="rounded=1;whiteSpace=wrap;html=1;" parent="1" vertex="1">
          <mxGeometry x="365" y="280" width="120" height="60" as="geometry" />
        </mxCell>
        <mxCell id="AXch3FCouiSQZAluR5rx-11" style="edgeStyle=orthogonalEdgeStyle;rounded=0;orthogonalLoop=1;jettySize=auto;html=1;entryX=0.5;entryY=0;entryDx=0;entryDy=0;" parent="1" source="AXch3FCouiSQZAluR5rx-10" target="AXch3FCouiSQZAluR5rx-101" edge="1">
          <mxGeometry relative="1" as="geometry">
            <mxPoint x="426" y="620" as="targetPoint" />
          </mxGeometry>
        </mxCell>
        <mxCell id="GWTwijyRaGSzuzl7jVMn-12" style="edgeStyle=orthogonalEdgeStyle;rounded=0;orthogonalLoop=1;jettySize=auto;html=1;" edge="1" parent="1" source="AXch3FCouiSQZAluR5rx-10">
          <mxGeometry relative="1" as="geometry">
            <mxPoint x="90" y="540" as="targetPoint" />
          </mxGeometry>
        </mxCell>
        <mxCell id="AXch3FCouiSQZAluR5rx-10" value="ipNumbers.size==4" style="rhombus;whiteSpace=wrap;html=1;" parent="1" vertex="1">
          <mxGeometry x="330" y="500" width="190" height="80" as="geometry" />
        </mxCell>
        <mxCell id="AXch3FCouiSQZAluR5rx-18" value="No" style="text;html=1;align=center;verticalAlign=middle;resizable=0;points=[];autosize=1;strokeColor=none;fillColor=none;" parent="1" vertex="1">
          <mxGeometry x="220" y="510" width="40" height="30" as="geometry" />
        </mxCell>
        <mxCell id="AXch3FCouiSQZAluR5rx-19" value="Yes" style="text;html=1;align=center;verticalAlign=middle;resizable=0;points=[];autosize=1;strokeColor=none;fillColor=none;" parent="1" vertex="1">
          <mxGeometry x="430" y="580" width="40" height="30" as="geometry" />
        </mxCell>
        <mxCell id="AXch3FCouiSQZAluR5rx-23" value="" style="edgeStyle=orthogonalEdgeStyle;rounded=0;orthogonalLoop=1;jettySize=auto;html=1;" parent="1" source="AXch3FCouiSQZAluR5rx-21" target="AXch3FCouiSQZAluR5rx-10" edge="1">
          <mxGeometry relative="1" as="geometry" />
        </mxCell>
        <mxCell id="AXch3FCouiSQZAluR5rx-21" value="put result at&amp;nbsp;ipNumbers" style="whiteSpace=wrap;html=1;rounded=1;" parent="1" vertex="1">
          <mxGeometry x="365" y="380" width="120" height="60" as="geometry" />
        </mxCell>
        <mxCell id="AXch3FCouiSQZAluR5rx-51" style="edgeStyle=orthogonalEdgeStyle;rounded=0;orthogonalLoop=1;jettySize=auto;html=1;entryX=0;entryY=0.5;entryDx=0;entryDy=0;exitX=0;exitY=0.5;exitDx=0;exitDy=0;" parent="1" target="AXch3FCouiSQZAluR5rx-40" edge="1">
          <mxGeometry relative="1" as="geometry">
            <mxPoint x="378" y="665" as="sourcePoint" />
          </mxGeometry>
        </mxCell>
        <mxCell id="AXch3FCouiSQZAluR5rx-76" style="edgeStyle=orthogonalEdgeStyle;rounded=0;orthogonalLoop=1;jettySize=auto;html=1;entryX=0.5;entryY=1;entryDx=0;entryDy=0;" parent="1" source="AXch3FCouiSQZAluR5rx-35" target="AXch3FCouiSQZAluR5rx-36" edge="1">
          <mxGeometry relative="1" as="geometry" />
        </mxCell>
        <mxCell id="AXch3FCouiSQZAluR5rx-77" value="Yes" style="edgeLabel;html=1;align=center;verticalAlign=middle;resizable=0;points=[];" parent="AXch3FCouiSQZAluR5rx-76" vertex="1" connectable="0">
          <mxGeometry x="-0.1756" y="8" relative="1" as="geometry">
            <mxPoint x="1" y="-4" as="offset" />
          </mxGeometry>
        </mxCell>
        <mxCell id="AXch3FCouiSQZAluR5rx-35" value="itenm is numer" style="rhombus;whiteSpace=wrap;html=1;" parent="1" vertex="1">
          <mxGeometry x="390" y="750" width="75.5" height="90" as="geometry" />
        </mxCell>
        <mxCell id="AXch3FCouiSQZAluR5rx-48" style="edgeStyle=orthogonalEdgeStyle;rounded=0;orthogonalLoop=1;jettySize=auto;html=1;entryX=0;entryY=0.5;entryDx=0;entryDy=0;" parent="1" source="AXch3FCouiSQZAluR5rx-36" target="AXch3FCouiSQZAluR5rx-43" edge="1">
          <mxGeometry relative="1" as="geometry" />
        </mxCell>
        <mxCell id="AXch3FCouiSQZAluR5rx-36" value="item range between&lt;div&gt;&amp;nbsp;0 to 255&amp;nbsp;&lt;/div&gt;" style="rhombus;whiteSpace=wrap;html=1;direction=south;" parent="1" vertex="1">
          <mxGeometry x="532.5" y="745" width="95" height="100" as="geometry" />
        </mxCell>
        <mxCell id="AXch3FCouiSQZAluR5rx-45" style="edgeStyle=orthogonalEdgeStyle;rounded=0;orthogonalLoop=1;jettySize=auto;html=1;entryX=0;entryY=0.5;entryDx=0;entryDy=0;" parent="1" source="AXch3FCouiSQZAluR5rx-38" target="AXch3FCouiSQZAluR5rx-35" edge="1">
          <mxGeometry relative="1" as="geometry" />
        </mxCell>
        <mxCell id="AXch3FCouiSQZAluR5rx-38" value="item not&lt;div&gt;&amp;nbsp;blan&lt;span style=&quot;background-color: transparent; color: light-dark(rgb(0, 0, 0), rgb(255, 255, 255));&quot;&gt;k&lt;/span&gt;&lt;/div&gt;" style="rhombus;whiteSpace=wrap;html=1;" parent="1" vertex="1">
          <mxGeometry x="230" y="750" width="80" height="90" as="geometry" />
        </mxCell>
        <mxCell id="AXch3FCouiSQZAluR5rx-47" style="edgeStyle=orthogonalEdgeStyle;rounded=0;orthogonalLoop=1;jettySize=auto;html=1;entryX=0;entryY=0.5;entryDx=0;entryDy=0;" parent="1" source="AXch3FCouiSQZAluR5rx-40" target="AXch3FCouiSQZAluR5rx-38" edge="1">
          <mxGeometry relative="1" as="geometry" />
        </mxCell>
        <mxCell id="AXch3FCouiSQZAluR5rx-65" style="edgeStyle=orthogonalEdgeStyle;rounded=0;orthogonalLoop=1;jettySize=auto;html=1;entryX=0.5;entryY=1;entryDx=0;entryDy=0;" parent="1" source="AXch3FCouiSQZAluR5rx-40" target="GWTwijyRaGSzuzl7jVMn-7" edge="1">
          <mxGeometry relative="1" as="geometry">
            <mxPoint x="110" y="940" as="targetPoint" />
            <Array as="points">
              <mxPoint x="110" y="970" />
              <mxPoint x="18" y="970" />
            </Array>
          </mxGeometry>
        </mxCell>
        <mxCell id="AXch3FCouiSQZAluR5rx-40" value="item not empty&amp;nbsp;" style="rhombus;whiteSpace=wrap;html=1;" parent="1" vertex="1">
          <mxGeometry x="70" y="750" width="80" height="90" as="geometry" />
        </mxCell>
        <mxCell id="AXch3FCouiSQZAluR5rx-100" style="edgeStyle=orthogonalEdgeStyle;rounded=0;orthogonalLoop=1;jettySize=auto;html=1;" parent="1" source="AXch3FCouiSQZAluR5rx-43" edge="1">
          <mxGeometry relative="1" as="geometry">
            <mxPoint x="850" y="690" as="targetPoint" />
          </mxGeometry>
        </mxCell>
        <mxCell id="AXch3FCouiSQZAluR5rx-43" value="item ==&quot;0&quot;&lt;div&gt;&lt;span style=&quot;background-color: transparent; color: light-dark(rgb(0, 0, 0), rgb(255, 255, 255));&quot;&gt;or&lt;/span&gt;&lt;/div&gt;&lt;div&gt;&lt;span style=&quot;background-color: transparent; color: light-dark(rgb(0, 0, 0), rgb(255, 255, 255));&quot;&gt;item[0]!=&quot;0&quot;&amp;nbsp;&lt;/span&gt;&lt;/div&gt;" style="rhombus;whiteSpace=wrap;html=1;" parent="1" vertex="1">
          <mxGeometry x="700" y="745" width="100" height="100" as="geometry" />
        </mxCell>
        <mxCell id="AXch3FCouiSQZAluR5rx-56" value="&lt;span style=&quot;font-size: 11px; background-color: rgb(18, 18, 18);&quot;&gt;Yes&lt;/span&gt;" style="text;html=1;align=center;verticalAlign=middle;resizable=0;points=[];autosize=1;strokeColor=none;fillColor=none;" parent="1" vertex="1">
          <mxGeometry x="170" y="768" width="40" height="30" as="geometry" />
        </mxCell>
        <mxCell id="AXch3FCouiSQZAluR5rx-57" value="&lt;span style=&quot;font-size: 11px; text-align: center; text-wrap-mode: nowrap; background-color: rgb(18, 18, 18);&quot;&gt;Yes&lt;/span&gt;" style="text;whiteSpace=wrap;html=1;" parent="1" vertex="1">
          <mxGeometry x="330" y="768" width="50" height="40" as="geometry" />
        </mxCell>
        <mxCell id="AXch3FCouiSQZAluR5rx-59" value="&lt;span style=&quot;font-size: 11px; text-align: center; text-wrap-mode: nowrap; background-color: rgb(18, 18, 18);&quot;&gt;Yes&lt;/span&gt;" style="text;whiteSpace=wrap;html=1;" parent="1" vertex="1">
          <mxGeometry x="650" y="768" width="50" height="40" as="geometry" />
        </mxCell>
        <mxCell id="AXch3FCouiSQZAluR5rx-60" value="&lt;span style=&quot;color: rgb(255, 255, 255); font-family: Helvetica; font-size: 12px; font-style: normal; font-variant-ligatures: normal; font-variant-caps: normal; font-weight: 400; letter-spacing: normal; orphans: 2; text-align: center; text-indent: 0px; text-transform: none; widows: 2; word-spacing: 0px; -webkit-text-stroke-width: 0px; white-space: nowrap; background-color: rgb(27, 29, 30); text-decoration-thickness: initial; text-decoration-style: initial; text-decoration-color: initial; display: inline !important; float: none;&quot;&gt;No&lt;/span&gt;" style="text;whiteSpace=wrap;html=1;" parent="1" vertex="1">
          <mxGeometry x="760" y="908" width="50" height="40" as="geometry" />
        </mxCell>
        <mxCell id="AXch3FCouiSQZAluR5rx-62" value="End" style="ellipse;whiteSpace=wrap;html=1;" parent="1" vertex="1">
          <mxGeometry x="330" y="1070" width="120" height="80" as="geometry" />
        </mxCell>
        <mxCell id="AXch3FCouiSQZAluR5rx-66" value="No" style="text;html=1;align=center;verticalAlign=middle;resizable=0;points=[];autosize=1;strokeColor=none;fillColor=none;" parent="1" vertex="1">
          <mxGeometry x="110" y="868" width="40" height="30" as="geometry" />
        </mxCell>
        <mxCell id="AXch3FCouiSQZAluR5rx-71" value="" style="endArrow=none;html=1;rounded=0;entryX=0.5;entryY=1;entryDx=0;entryDy=0;" parent="1" target="AXch3FCouiSQZAluR5rx-35" edge="1">
          <mxGeometry width="50" height="50" relative="1" as="geometry">
            <mxPoint x="428" y="1000" as="sourcePoint" />
            <mxPoint x="650" y="750" as="targetPoint" />
          </mxGeometry>
        </mxCell>
        <mxCell id="AXch3FCouiSQZAluR5rx-73" value="" style="endArrow=none;html=1;rounded=0;exitX=1;exitY=0.5;exitDx=0;exitDy=0;" parent="1" source="AXch3FCouiSQZAluR5rx-36" edge="1">
          <mxGeometry width="50" height="50" relative="1" as="geometry">
            <mxPoint x="600" y="790" as="sourcePoint" />
            <mxPoint x="580" y="1000" as="targetPoint" />
          </mxGeometry>
        </mxCell>
        <mxCell id="AXch3FCouiSQZAluR5rx-74" style="edgeStyle=orthogonalEdgeStyle;rounded=0;orthogonalLoop=1;jettySize=auto;html=1;entryX=0.25;entryY=1;entryDx=0;entryDy=0;" parent="1" source="AXch3FCouiSQZAluR5rx-38" target="GWTwijyRaGSzuzl7jVMn-7" edge="1">
          <mxGeometry relative="1" as="geometry">
            <Array as="points">
              <mxPoint x="270" y="1000" />
              <mxPoint x="-21" y="1000" />
            </Array>
            <mxPoint x="170" y="1000" as="targetPoint" />
          </mxGeometry>
        </mxCell>
        <mxCell id="AXch3FCouiSQZAluR5rx-75" value="" style="endArrow=none;html=1;rounded=0;" parent="1" edge="1">
          <mxGeometry width="50" height="50" relative="1" as="geometry">
            <mxPoint x="270" y="1000" as="sourcePoint" />
            <mxPoint x="580" y="1000" as="targetPoint" />
          </mxGeometry>
        </mxCell>
        <mxCell id="AXch3FCouiSQZAluR5rx-78" value="No" style="text;html=1;align=center;verticalAlign=middle;resizable=0;points=[];autosize=1;strokeColor=none;fillColor=none;" parent="1" vertex="1">
          <mxGeometry x="270" y="913" width="40" height="30" as="geometry" />
        </mxCell>
        <mxCell id="AXch3FCouiSQZAluR5rx-79" value="No" style="text;html=1;align=center;verticalAlign=middle;resizable=0;points=[];autosize=1;strokeColor=none;fillColor=none;" parent="1" vertex="1">
          <mxGeometry x="425" y="913" width="40" height="30" as="geometry" />
        </mxCell>
        <mxCell id="AXch3FCouiSQZAluR5rx-80" value="No" style="text;html=1;align=center;verticalAlign=middle;resizable=0;points=[];autosize=1;strokeColor=none;fillColor=none;" parent="1" vertex="1">
          <mxGeometry x="580" y="908" width="40" height="30" as="geometry" />
        </mxCell>
        <mxCell id="AXch3FCouiSQZAluR5rx-86" value="&lt;span style=&quot;color: rgb(255, 255, 255); font-family: Helvetica; font-size: 11px; font-style: normal; font-variant-ligatures: normal; font-variant-caps: normal; font-weight: 400; letter-spacing: normal; orphans: 2; text-align: center; text-indent: 0px; text-transform: none; widows: 2; word-spacing: 0px; -webkit-text-stroke-width: 0px; white-space: nowrap; background-color: rgb(18, 18, 18); text-decoration-thickness: initial; text-decoration-style: initial; text-decoration-color: initial; display: inline !important; float: none;&quot;&gt;Yes&lt;/span&gt;" style="text;whiteSpace=wrap;html=1;" parent="1" vertex="1">
          <mxGeometry x="850" y="745" width="50" height="40" as="geometry" />
        </mxCell>
        <mxCell id="AXch3FCouiSQZAluR5rx-87" value="" style="endArrow=none;html=1;rounded=0;entryX=0.5;entryY=1;entryDx=0;entryDy=0;" parent="1" target="AXch3FCouiSQZAluR5rx-43" edge="1">
          <mxGeometry width="50" height="50" relative="1" as="geometry">
            <mxPoint x="750" y="1000" as="sourcePoint" />
            <mxPoint x="500" y="830" as="targetPoint" />
          </mxGeometry>
        </mxCell>
        <mxCell id="AXch3FCouiSQZAluR5rx-88" value="" style="endArrow=none;html=1;rounded=0;" parent="1" edge="1">
          <mxGeometry width="50" height="50" relative="1" as="geometry">
            <mxPoint x="580" y="1000" as="sourcePoint" />
            <mxPoint x="750" y="1000" as="targetPoint" />
          </mxGeometry>
        </mxCell>
        <mxCell id="AXch3FCouiSQZAluR5rx-101" value="loop at list" style="rounded=1;whiteSpace=wrap;html=1;" parent="1" vertex="1">
          <mxGeometry x="330" y="630" width="120" height="60" as="geometry" />
        </mxCell>
        <mxCell id="GWTwijyRaGSzuzl7jVMn-2" style="edgeStyle=orthogonalEdgeStyle;rounded=0;orthogonalLoop=1;jettySize=auto;html=1;" edge="1" parent="1" source="AXch3FCouiSQZAluR5rx-102">
          <mxGeometry relative="1" as="geometry">
            <mxPoint x="980" y="655" as="targetPoint" />
          </mxGeometry>
        </mxCell>
        <mxCell id="GWTwijyRaGSzuzl7jVMn-5" style="edgeStyle=orthogonalEdgeStyle;rounded=0;orthogonalLoop=1;jettySize=auto;html=1;" edge="1" parent="1" source="AXch3FCouiSQZAluR5rx-102">
          <mxGeometry relative="1" as="geometry">
            <mxPoint x="450" y="655" as="targetPoint" />
          </mxGeometry>
        </mxCell>
        <mxCell id="AXch3FCouiSQZAluR5rx-102" value="are this last item" style="rhombus;whiteSpace=wrap;html=1;" parent="1" vertex="1">
          <mxGeometry x="800" y="610" width="100" height="90" as="geometry" />
        </mxCell>
        <mxCell id="AXch3FCouiSQZAluR5rx-105" value="Yes" style="text;html=1;align=center;verticalAlign=middle;resizable=0;points=[];autosize=1;strokeColor=none;fillColor=none;" parent="1" vertex="1">
          <mxGeometry x="920" y="630" width="40" height="30" as="geometry" />
        </mxCell>
        <mxCell id="AXch3FCouiSQZAluR5rx-106" value="No" style="text;html=1;align=center;verticalAlign=middle;resizable=0;points=[];autosize=1;strokeColor=none;fillColor=none;" parent="1" vertex="1">
          <mxGeometry x="620" y="630" width="40" height="30" as="geometry" />
        </mxCell>
        <mxCell id="GWTwijyRaGSzuzl7jVMn-11" style="edgeStyle=orthogonalEdgeStyle;rounded=0;orthogonalLoop=1;jettySize=auto;html=1;entryX=1;entryY=0.5;entryDx=0;entryDy=0;" edge="1" parent="1" source="GWTwijyRaGSzuzl7jVMn-6" target="AXch3FCouiSQZAluR5rx-62">
          <mxGeometry relative="1" as="geometry">
            <Array as="points">
              <mxPoint x="1170" y="655" />
              <mxPoint x="1170" y="1110" />
            </Array>
          </mxGeometry>
        </mxCell>
        <mxCell id="GWTwijyRaGSzuzl7jVMn-6" value="valid IP adress (true)" style="shape=parallelogram;perimeter=parallelogramPerimeter;whiteSpace=wrap;html=1;fixedSize=1;" vertex="1" parent="1">
          <mxGeometry x="970" y="625" width="155" height="60" as="geometry" />
        </mxCell>
        <mxCell id="GWTwijyRaGSzuzl7jVMn-7" value="invalid IP adress (false)" style="shape=parallelogram;perimeter=parallelogramPerimeter;whiteSpace=wrap;html=1;fixedSize=1;" vertex="1" parent="1">
          <mxGeometry x="-60" y="510" width="155" height="60" as="geometry" />
        </mxCell>
        <mxCell id="GWTwijyRaGSzuzl7jVMn-13" style="edgeStyle=orthogonalEdgeStyle;rounded=0;orthogonalLoop=1;jettySize=auto;html=1;entryX=-0.019;entryY=0.654;entryDx=0;entryDy=0;entryPerimeter=0;exitX=0;exitY=0.5;exitDx=0;exitDy=0;" edge="1" parent="1" source="GWTwijyRaGSzuzl7jVMn-7">
          <mxGeometry relative="1" as="geometry">
            <mxPoint x="-62.72" y="360" as="sourcePoint" />
            <mxPoint x="330.0000000000002" y="1112.3200000000002" as="targetPoint" />
            <Array as="points">
              <mxPoint x="-213" y="540" />
              <mxPoint x="-213" y="1112" />
            </Array>
          </mxGeometry>
        </mxCell>
      </root>
    </mxGraphModel>
  </diagram>
</mxfile>
